<svg xmlns="http://www.w3.org/2000/svg" viewBox="0 0 25 15.29"><defs><style>.cls-1{fill:#fff;}</style></defs><title>Asset 26</title><g id="Layer_2" data-name="Layer 2"><g id="Layer_2-2" data-name="Layer 2"><path class="cls-1" d="M17.59,3.48A17.59,17.59,0,0,1,22.4,7.65s-4.25,5.63-9.9,5.63S2.6,7.65,2.6,7.65A17.32,17.32,0,0,1,8,3.19a5.66,5.66,0,0,0-1,3.24A5.73,5.73,0,1,0,17.59,3.48ZM12.5,15.29c7.67,0,12.5-7.64,12.5-7.64S20.17,0,12.5,0,0,7.65,0,7.65,4.83,15.29,12.5,15.29ZM11.65,2.71a3,3,0,0,0-3,2.77A.7.7,0,0,0,10,5.55a1.59,1.59,0,0,1,1.61-1.46.69.69,0,0,0,0-1.38Z"/></g></g></svg>