<svg id="Layer_1" data-name="Layer 1" xmlns="http://www.w3.org/2000/svg" viewBox="0 0 900 721"><defs><style>.cls-1{fill:none;stroke:#303030;stroke-miterlimit:10;}</style></defs><title>desktop-svg-bg</title><g id="Laptop"><path class="cls-1" d="M868.77,619h-839a30.09,30.09,0,0,1-30-30V30a30.09,30.09,0,0,1,30-30h839a30.09,30.09,0,0,1,30,30V589A30.09,30.09,0,0,1,868.77,619Z" transform="translate(0.73 0.5)"/><path class="cls-1" d="M552.07,619.1c.7,11.1,2,26.3,3.7,40.7,4.5,39.1,8,42.5,8.7,42.8,3.2,1.4,13,2.9,21.7,4.2,15.5,2.4,17.6,2.9,17.6,4.4v2.2c0,.6,0,1-3,1.4v2.6c.1,1.7-94.2,1.6-94.2,1.6l-57.4,1h-57.4c-44.8-.7-94.3-1-94-2.6v-2.6c-3.2-.4-3-1.4-3-1.4v-2.2c0-1.5,2.1-2,17.6-4.4,8.7-1.3,18.5-2.8,21.7-4.2.7-.3,4.2-3.7,8.7-42.8,1.7-14.4,3-29.6,3.7-40.7" transform="translate(0.73 0.5)"/><path class="cls-1" d="M599.57,714.8c-4,.4-12,.7-27.6.9s-36.7.4-65,.4c-14,0-27.2,0-38.8-.1h-38c-11.7,0-24.9.1-38.8.1-28.2,0-49.5-.1-65-.4s-23.5-.5-27.6-.9" transform="translate(0.73 0.5)"/><circle class="cls-1" cx="450" cy="19.5" r="4.1"/></g></svg>