<svg xmlns="http://www.w3.org/2000/svg" viewBox="0 0 23.02 23.02"><defs><style>.cls-1{fill:#fff;}</style></defs><title>Asset 27</title><g id="Layer_2" data-name="Layer 2"><g id="Layer_2-2" data-name="Layer 2"><path class="cls-1" d="M11.51,0A11.51,11.51,0,1,0,23,11.51,11.51,11.51,0,0,0,11.51,0Zm3.23,20.28c-.07-.9-.14-2-.15-2.47a2.19,2.19,0,0,0-.9-1.79c3.32-.28,4.91-2.11,5-4.54A4.54,4.54,0,0,0,17.28,7.9a19.2,19.2,0,0,0-.1-2.84c-.75-.22-2.5.7-3,1.1a9.28,9.28,0,0,0-5.08,0,4.89,4.89,0,0,0-3-1.11A3.6,3.6,0,0,0,6,7.89c-.8.74-1.92,1.64-1.62,3.53C4.88,14.18,6.83,15.68,10,16a1,1,0,0,0-.84.86c-2.11.87-2.71-.54-3-.91-.88-1.09-1.68-.77-1.72-.76s-.09.09-.08.12c0,.24.52.48.55.5a4.07,4.07,0,0,1,1,1.61c.94,1.54,3.11.9,3.13.92s0,1.26,0,2.15a9.37,9.37,0,1,1,5.69-.25Z"/></g></g></svg>