<svg id="Layer_1" data-name="Layer 1" xmlns="http://www.w3.org/2000/svg" viewBox="0 0 259 538"><defs><style>.cls-1{fill:none;stroke:#303030;stroke-miterlimit:10;}</style></defs><title>mobile-svg-bg</title><g id="Laptop"><path class="cls-1" d="M222.2,537H38.8A35.91,35.91,0,0,1,3,501.2V39.8A35.91,35.91,0,0,1,38.8,4H222.2A35.91,35.91,0,0,1,258,39.8V501.2A35.91,35.91,0,0,1,222.2,537Z" transform="translate(0.5 0.5)"/><path class="cls-1" d="M220.7,530H40.3A29.38,29.38,0,0,1,11,500.7V41.3A29.38,29.38,0,0,1,40.3,12H220.7A29.39,29.39,0,0,1,250,41.3V500.7A29.39,29.39,0,0,1,220.7,530Z" transform="translate(0.5 0.5)"/><circle class="cls-1" cx="130.6" cy="497.23" r="21.9" transform="matrix(0.09, -1, 1, 0.09, -375.91, 582.75)"/><circle class="cls-1" cx="131.1" cy="31.3" r="5.7"/><circle class="cls-1" cx="131.1" cy="31.3" r="2.5"/><path class="cls-1" d="M149,56H112.2a5,5,0,0,1-5-5h0a5,5,0,0,1,5-5H149a5,5,0,0,1,5,5h0A5,5,0,0,1,149,56Z" transform="translate(0.5 0.5)"/><path class="cls-1" d="M2.6,147.9A2.59,2.59,0,0,1,0,145.34V130.1a2.59,2.59,0,0,1,2.56-2.6h0" transform="translate(0.5 0.5)"/><path class="cls-1" d="M2.6,182.7A2.58,2.58,0,0,1,0,180.14V164.9a2.59,2.59,0,0,1,2.56-2.6h0" transform="translate(0.5 0.5)"/><path class="cls-1" d="M3,103.3a3,3,0,0,1-3-3v-20a3,3,0,0,1,3-3" transform="translate(0.5 0.5)"/><path class="cls-1" d="M215,4V3a3,3,0,0,0-3-3H174a3,3,0,0,0-3,3V4" transform="translate(0.5 0.5)"/></g></svg>