<?xml version="1.0" standalone="no"?>
<!DOCTYPE svg PUBLIC "-//W3C//DTD SVG 20010904//EN"
 "http://www.w3.org/TR/2001/REC-SVG-20010904/DTD/svg10.dtd">
<svg version="1.0" xmlns="http://www.w3.org/2000/svg"
 width="98.000000pt" height="98.000000pt" viewBox="0 0 98.000000 98.000000"
 preserveAspectRatio="xMidYMid meet">
<metadata>
Created by potrace 1.11, written by Peter Selinger 2001-2013
</metadata>
<g transform="translate(0.000000,98.000000) scale(0.100000,-0.100000)"
fill="#000000" stroke="none">
<path d="M141 496 c-72 -198 -131 -363 -131 -366 0 -3 53 -6 117 -5 l117 0 13
33 13 33 97 -3 96 -3 12 -35 12 -35 118 0 119 0 88 245 c49 135 93 254 98 265
11 26 70 190 70 196 0 2 -52 4 -116 4 l-116 0 -67 -147 c-36 -82 -69 -148 -72
-148 -3 0 -18 46 -34 103 -15 56 -36 130 -47 164 l-18 62 -119 -1 -119 -1
-131 -361z m364 282 c8 -29 53 -185 99 -346 l84 -293 -91 3 -90 3 -10 30 c-6
17 -14 33 -20 36 -5 4 -45 7 -89 7 -43 0 -80 1 -82 3 -2 2 7 31 20 65 25 60
25 61 65 61 21 0 41 2 44 5 3 2 -26 111 -63 241 l-68 237 93 0 92 0 16 -52z
m-106 -390 c1 -12 -5 -16 -20 -13 -29 6 -29 5 -12 45 16 35 16 35 23 10 5 -14
8 -33 9 -42z"/>
</g>
</svg>
