<svg viewBox="0 0 260 538.8"><path class="st0" d="M223.2,537.8H40c-19.7,0-35.8-16.1-35.8-35.8V40.4C4.2,20.7,20.3,4.6,40,4.6h183.2c19.7,0,35.8,16.1,35.8,35.8 V502C259,521.7,242.9,537.8,223.2,537.8z"></path><path class="st0" d="M221.7,530.9H41.6c-16.1,0-29.3-13.2-29.3-29.3V41.9c0-16.1,13.2-29.3,29.3-29.3h180.1 c16.1,0,29.3,13.2,29.3,29.3v459.7C251,517.7,237.8,530.9,221.7,530.9z"></path><circle class="st0" cx="131.6" cy="498.2" r="21.9"></circle><circle class="st0" cx="131.6" cy="31.8" r="5.7"></circle><circle class="st0" cx="131.6" cy="31.8" r="2.5"></circle><path class="st0" d="M150,57h-36.8c-2.8,0-5-2.3-5-5v0c0-2.8,2.3-5,5-5H150c2.8,0,5,2.3,5,5v0C155,54.8,152.7,57,150,57z"></path><path class="st0" d="M3.6,148.9c-1.5,0-2.6-1.2-2.6-2.6v-15.2c0-1.5,1.2-2.6,2.6-2.6"></path><path class="st0" d="M3.6,183.7c-1.5,0-2.6-1.2-2.6-2.6v-15.2c0-1.5,1.2-2.6,2.6-2.6"></path><path class="st0" d="M4,104.3c-1.6,0-3-1.3-3-3v-20c0-1.6,1.3-3,3-3"></path><path class="st0" d="M215.7,4.6V4c0-1.6-1.3-3-3-3h-37.8c-1.6,0-3,1.3-3,3v0.6"></path></svg>
