<svg xmlns="http://www.w3.org/2000/svg" viewBox="0 0 258 537"><defs><style>.cls-1{fill:none;stroke:#000;stroke-miterlimit:10;}</style></defs><title>mobile-svg-bg</title><g id="Laptop"><path class="cls-1" d="M222.2,537H38.8A35.91,35.91,0,0,1,3,501.2V39.8A35.91,35.91,0,0,1,38.8,4H222.2A35.91,35.91,0,0,1,258,39.8V501.2A35.91,35.91,0,0,1,222.2,537Z"/><path class="cls-1" d="M220.7,530H40.3A29.38,29.38,0,0,1,11,500.7V41.3A29.38,29.38,0,0,1,40.3,12H220.7A29.39,29.39,0,0,1,250,41.3V500.7A29.39,29.39,0,0,1,220.7,530Z"/><circle class="cls-1" cx="130.6" cy="497.2" r="21.9" transform="translate(-372.01 605.14) rotate(-87.4)"/><circle class="cls-1" cx="130.6" cy="30.8" r="5.7"/><circle class="cls-1" cx="130.6" cy="30.8" r="2.5"/><path class="cls-1" d="M149,56H112.2a5,5,0,0,1-5-5h0a5,5,0,0,1,5-5H149a5,5,0,0,1,5,5h0A5,5,0,0,1,149,56Z"/><path class="cls-1" d="M2.6,147.9A2.58,2.58,0,0,1,0,145.3V130.1a2.58,2.58,0,0,1,2.6-2.6"/><path class="cls-1" d="M2.6,182.7A2.58,2.58,0,0,1,0,180.1V164.9a2.58,2.58,0,0,1,2.6-2.6"/><path class="cls-1" d="M3,103.3a3,3,0,0,1-3-3v-20a3,3,0,0,1,3-3"/><path class="cls-1" d="M215,4V3a3,3,0,0,0-3-3H174a3,3,0,0,0-3,3V4"/></g></svg>